<svg width="1920" height="297" viewBox="0 0 1920 297" fill="none" xmlns="http://www.w3.org/2000/svg">
<path fill-rule="evenodd" clip-rule="evenodd" d="M1920 0L1873.6 18.8333C1828.8 37.6667 1737.6 75.3333 1646.4 87.8889C1553.6 100.444 1462.4 87.8889 1371.2 119.278C1280 150.667 1188.8 226 1097.6 263.667C1006.4 301.333 913.6 301.333 822.4 295.056C731.2 288.778 640 276.222 548.8 232.278C457.6 188.333 366.4 113 273.6 75.3333C182.4 37.6667 91.2001 37.6667 46.4 37.6667H0V339H46.4C91.2001 339 182.4 339 273.6 339C366.4 339 457.6 339 548.8 339C640 339 731.2 339 822.4 339C913.6 339 1006.4 339 1097.6 339C1188.8 339 1280 339 1371.2 339C1462.4 339 1553.6 339 1646.4 339C1737.6 339 1828.8 339 1873.6 339H1920V0Z" fill="#818CF8" fill-opacity="0.15"/>
</svg>
