<svg width="1920" height="237" viewBox="0 0 1920 237" fill="none" xmlns="http://www.w3.org/2000/svg">
<path fill-rule="evenodd" clip-rule="evenodd" d="M0 0L46.4 18.8333C91.2 37.6667 182.4 75.3333 273.6 87.8889C366.4 100.444 457.6 87.8889 548.8 119.278C640 150.667 731.2 226 822.4 263.667C913.6 301.333 1006.4 301.333 1097.6 295.056C1188.8 288.778 1280 276.222 1371.2 232.278C1462.4 188.333 1553.6 113 1646.4 75.3333C1737.6 37.6667 1828.8 37.6667 1873.6 37.6667H1920V339H1873.6C1828.8 339 1737.6 339 1646.4 339C1553.6 339 1462.4 339 1371.2 339C1280 339 1188.8 339 1097.6 339C1006.4 339 913.6 339 822.4 339C731.2 339 640 339 548.8 339C457.6 339 366.4 339 273.6 339C182.4 339 91.2 339 46.4 339H0V0Z" fill="#818CF8" fill-opacity="0.15"/>
</svg>
