<svg width="1920" height="161" viewBox="0 0 1920 161" fill="none" xmlns="http://www.w3.org/2000/svg">
<path fill-rule="evenodd" clip-rule="evenodd" d="M1920 82.0348L1855.67 88.0368C1791.33 94.0387 1662.67 106.043 1534 124.048C1405.33 142.054 1276.67 166.062 1148 160.06C1019.33 154.058 890.667 118.046 762 88.0368C633.333 58.0271 504.667 34.0194 376 40.0213C247.333 46.0232 118.667 82.0348 54.3334 100.041L-10 118.046V-26H54.3334C118.667 -26 247.333 -26 376 -26C504.667 -26 633.333 -26 762 -26C890.667 -26 1019.33 -26 1148 -26C1276.67 -26 1405.33 -26 1534 -26C1662.67 -26 1791.33 -26 1855.67 -26H1920V82.0348Z" fill="#818CF8" fill-opacity="0.15"/>
</svg>
