<svg width="1920" height="248" viewBox="0 0 1920 248" fill="none" xmlns="http://www.w3.org/2000/svg">
<path fill-rule="evenodd" clip-rule="evenodd" d="M1920 248L1840.41 229C1759.83 210 1599.67 171 1439.5 123C1280.33 75 1120.17 17 960 -32C799.834 -80 639.668 -118 479.503 -99C320.332 -80 160.166 -3 79.5856 36L0 75V-215H79.5856C160.166 -215 320.332 -215 479.503 -215C639.668 -215 799.834 -215 960 -215C1120.17 -215 1280.33 -215 1439.5 -215C1599.67 -215 1759.83 -215 1840.41 -215H1920V248Z" fill="#818CF8" fill-opacity="0.15"/>
</svg>
