<svg width="1920" height="263" viewBox="0 0 1920 263" fill="none" xmlns="http://www.w3.org/2000/svg">
<path fill-rule="evenodd" clip-rule="evenodd" d="M1920 269.008L1856 232.991C1792 196.974 1664 124.941 1536 70.9158C1408 16.8907 1280 -19.1261 1152 10.8879C1024 40.9018 896 136.946 768 136.946C640 136.946 512 40.9018 384 22.8934C256 4.88508 128 64.913 64 94.9269L0 124.941V269.008H64C128 269.008 256 269.008 384 269.008C512 269.008 640 269.008 768 269.008C896 269.008 1024 269.008 1152 269.008C1280 269.008 1408 269.008 1536 269.008C1664 269.008 1792 269.008 1856 269.008H1920Z" fill="#818CF8" fill-opacity="0.15"/>
</svg>
