<svg width="503" height="566" viewBox="0 0 503 566" fill="none" xmlns="http://www.w3.org/2000/svg">
<rect width="75" height="455" fill="#343434"/>
<path fill-rule="evenodd" clip-rule="evenodd" d="M290 0H215V187.957C233.143 196.215 249.286 208.102 262.5 222.691C274.159 235.563 283.538 250.538 290 266.979V0ZM226.001 337C225.34 331.424 225 325.751 225 320C225 306.803 221.348 294.46 215 283.924V337H226.001Z" fill="#8780C6"/>
<path d="M145 185C64.9187 185 0 249.919 0 330H75C75 291.34 106.34 260 145 260C183.66 260 215 291.34 215 330C215 408.052 277.671 471.701 353.981 474.876L354 399.732C320.154 396.61 290 366.582 290 330C290 292.552 275.804 258.42 252.5 232.691C225.969 203.4 187.633 185 145 185Z" fill="#343434"/>
<path d="M503 330C503 249.919 438.081 185 358 185V260C396.66 260 428 291.34 428 330C428 366.582 397.846 396.61 364 399.732V474.876C439.828 471.701 503 408.052 503 330Z" fill="#8780C6"/>
<path d="M146.741 547.876V493.33H158.273V515.836H181.684V493.33H193.19V547.876H181.684V525.344H158.273V547.876H146.741ZM228.719 530.457V506.967H240.065V547.876H229.172V540.445H228.745C227.822 542.842 226.286 544.769 224.138 546.225C222.007 547.68 219.406 548.408 216.334 548.408C213.6 548.408 211.194 547.787 209.116 546.544C207.039 545.301 205.414 543.535 204.243 541.244C203.088 538.954 202.502 536.21 202.485 533.014V506.967H213.831V530.99C213.848 533.405 214.496 535.314 215.775 536.716C217.053 538.119 218.767 538.82 220.915 538.82C222.282 538.82 223.561 538.51 224.75 537.888C225.94 537.249 226.899 536.308 227.627 535.065C228.373 533.822 228.737 532.286 228.719 530.457ZM355.847 493.33V547.876H344.501V493.33H355.847Z" fill="#343434"/>
<path d="M249.353 547.876V493.33H260.699V513.838H261.045C261.542 512.737 262.261 511.619 263.203 510.482C264.161 509.328 265.404 508.369 266.931 507.606C268.476 506.825 270.394 506.434 272.684 506.434C275.667 506.434 278.419 507.215 280.94 508.778C283.462 510.323 285.477 512.657 286.986 515.782C288.495 518.89 289.25 522.787 289.25 527.475C289.25 532.038 288.513 535.891 287.04 539.033C285.584 542.158 283.595 544.529 281.074 546.145C278.57 547.743 275.765 548.542 272.657 548.542C270.456 548.542 268.582 548.178 267.038 547.45C265.511 546.722 264.259 545.807 263.282 544.706C262.306 543.588 261.56 542.46 261.045 541.324H260.539V547.876H249.353ZM260.459 527.421C260.459 529.854 260.797 531.976 261.471 533.787C262.146 535.598 263.123 537.009 264.401 538.021C265.679 539.016 267.233 539.513 269.062 539.513C270.908 539.513 272.471 539.007 273.749 537.995C275.028 536.965 275.995 535.544 276.652 533.733C277.327 531.905 277.665 529.801 277.665 527.421C277.665 525.06 277.336 522.982 276.679 521.189C276.022 519.396 275.054 517.993 273.776 516.981C272.498 515.969 270.926 515.463 269.062 515.463C267.215 515.463 265.653 515.951 264.374 516.928C263.114 517.904 262.146 519.289 261.471 521.082C260.797 522.876 260.459 524.989 260.459 527.421ZM297.034 547.876V493.33H308.38V513.838H308.726C309.223 512.737 309.942 511.619 310.883 510.482C311.842 509.328 313.085 508.369 314.612 507.606C316.157 506.825 318.074 506.434 320.365 506.434C323.348 506.434 326.1 507.215 328.621 508.778C331.142 510.323 333.158 512.657 334.667 515.782C336.176 518.89 336.931 522.787 336.931 527.475C336.931 532.038 336.194 535.891 334.72 539.033C333.264 542.158 331.276 544.529 328.754 546.145C326.251 547.743 323.445 548.542 320.338 548.542C318.136 548.542 316.263 548.178 314.718 547.45C313.191 546.722 311.94 545.807 310.963 544.706C309.987 543.588 309.241 542.46 308.726 541.324H308.22V547.876H297.034ZM308.14 527.421C308.14 529.854 308.477 531.976 309.152 533.787C309.827 535.598 310.803 537.009 312.082 538.021C313.36 539.016 314.914 539.513 316.743 539.513C318.589 539.513 320.152 539.007 321.43 537.995C322.708 536.965 323.676 535.544 324.333 533.733C325.008 531.905 325.345 529.801 325.345 527.421C325.345 525.06 325.017 522.982 324.36 521.189C323.703 519.396 322.735 517.993 321.457 516.981C320.178 515.969 318.607 515.463 316.743 515.463C314.896 515.463 313.333 515.951 312.055 516.928C310.794 517.904 309.827 519.289 309.152 521.082C308.477 522.876 308.14 524.989 308.14 527.421Z" fill="#8780C6"/>
</svg>
