<svg width="700" height="700" viewBox="0 0 700 700" fill="none" xmlns="http://www.w3.org/2000/svg">
<rect width="700" height="700" fill="white"/>
<rect x="99" y="67" width="75" height="455" fill="#343434"/>
<path fill-rule="evenodd" clip-rule="evenodd" d="M389 67H314V254.957C332.143 263.215 348.286 275.102 361.5 289.691C373.159 302.563 382.538 317.538 389 333.979V67ZM325.001 404C324.34 398.424 324 392.751 324 387C324 373.803 320.348 361.46 314 350.924V404H325.001Z" fill="#8780C6"/>
<path d="M244 252C163.919 252 99 316.919 99 397H174C174 358.34 205.34 327 244 327C282.66 327 314 358.34 314 397C314 475.052 376.671 538.701 452.981 541.876L453 466.732C419.154 463.61 389 433.582 389 397C389 359.552 374.804 325.42 351.5 299.691C324.969 270.4 286.633 252 244 252Z" fill="#343434"/>
<path d="M602 397C602 316.919 537.081 252 457 252V327C495.66 327 527 358.34 527 397C527 433.582 496.846 463.61 463 466.732V541.876C538.828 538.701 602 475.052 602 397Z" fill="#8780C6"/>
<path d="M223.241 614.876H234.773V592.344H258.184V614.876H269.69V560.33H258.184V582.836H234.773V560.33H223.241V614.876ZM305.219 597.457C305.245 602.944 301.49 605.82 297.415 605.82C293.127 605.82 290.357 602.811 290.331 597.99V573.967H278.985V600.014C279.011 609.576 284.604 615.408 292.834 615.408C298.987 615.408 303.408 612.239 305.245 607.445H305.672V614.876H316.565V573.967H305.219V597.457ZM432.347 560.33H421.001V614.876H432.347V560.33ZM460.079 615.675C470.2 615.675 477.018 610.748 478.616 603.157L468.123 602.465C466.977 605.581 464.048 607.205 460.266 607.205C454.593 607.205 450.997 603.45 450.997 597.351V597.324H478.856V594.208C478.856 580.305 470.44 573.434 459.627 573.434C447.588 573.434 439.785 581.983 439.785 594.608C439.785 607.578 447.482 615.675 460.079 615.675ZM450.997 590.293C451.237 585.632 454.779 581.903 459.813 581.903C464.74 581.903 468.149 585.419 468.176 590.293H450.997Z" fill="#343434"/>
<path d="M325.853 614.876H337.039V608.324H337.545C339.117 611.733 342.552 615.542 349.157 615.542C358.479 615.542 365.75 608.164 365.75 594.475C365.75 580.412 358.16 573.434 349.184 573.434C342.339 573.434 339.063 577.509 337.545 580.838H337.199V560.33H325.853V614.876ZM336.959 594.421C336.959 587.124 340.049 582.463 345.562 582.463C351.182 582.463 354.165 587.337 354.165 594.421C354.165 601.559 351.128 606.513 345.562 606.513C340.102 606.513 336.959 601.719 336.959 594.421ZM373.534 614.876H384.72V608.324H385.226C386.797 611.733 390.233 615.542 396.838 615.542C406.16 615.542 413.431 608.164 413.431 594.475C413.431 580.412 405.84 573.434 396.865 573.434C390.02 573.434 386.744 577.509 385.226 580.838H384.88V560.33H373.534V614.876ZM384.64 594.421C384.64 587.124 387.729 582.463 393.243 582.463C398.862 582.463 401.845 587.337 401.845 594.421C401.845 601.559 398.809 606.513 393.243 606.513C387.783 606.513 384.64 601.719 384.64 594.421Z" fill="#8780C6"/>
</svg>
